<svg width="149" height="30" viewBox="0 0 149 30" fill="none" xmlns="http://www.w3.org/2000/svg">
<g id="Frame 11" clip-path="url(#clip0_2320_205)">
<path id="Union" fill-rule="evenodd" clip-rule="evenodd" d="M112.021 1.60463C110.802 2.52336 110.526 3.44083 110.321 4.86726C110.117 6.16384 110.166 7.59003 110.213 8.97658C110.234 9.58699 110.255 10.1894 110.254 10.7697C110.252 11.5989 110.224 12.4538 110.196 13.3182C110.128 15.3879 110.059 17.5128 110.339 19.4741C110.495 20.5755 110.758 21.5957 111.419 22.5176C112.85 24.5111 115.201 25.1295 117.523 25.4547C117.742 25.4856 117.971 25.5193 118.208 25.5539C120.763 25.9286 124.17 26.4285 126.217 24.8675C127.247 24.0816 127.866 23.0772 128.013 21.7936L128.157 14.9186L118.689 14.197C118.682 14.541 118.633 14.8875 118.802 15.2L122.613 15.5086C122.617 16.6671 122.62 17.8251 122.62 18.9836C122.62 19.1401 122.625 19.3026 122.63 19.4678C122.643 19.9053 122.656 20.3604 122.58 20.7644C122.536 20.9955 122.429 21.1398 122.267 21.306C121.88 21.7031 121.287 21.8554 120.749 21.881C119.554 21.9376 117.705 21.8245 116.816 20.9431C116.501 20.6311 116.252 20.1346 116.185 19.6987C116 18.4846 116.045 17.0895 116.088 15.775C116.102 15.3431 116.115 14.9199 116.121 14.5148C116.157 11.6443 116.194 8.72659 116.071 5.85926L116.09 5.80991C116.22 5.46496 116.367 5.07788 116.606 4.79623C117.012 4.31818 117.895 4.22969 118.486 4.1938C119.335 4.14196 121.046 4.12626 121.68 4.74813C122.226 5.284 122.237 6.28398 122.246 7.06661C122.248 7.1845 122.249 7.29741 122.252 7.40309L127.711 7.46341L127.722 7.31137C127.85 5.64616 127.993 3.79002 126.921 2.38178C125.938 1.09144 124.312 0.554561 122.764 0.323012C121.491 0.132837 120.156 0.145299 118.868 0.157263H118.844L118.756 0.158011C116.512 0.178449 113.88 0.202626 112.021 1.60463Z" fill="#1E1E1E"/>
<path id="Subtract" fill-rule="evenodd" clip-rule="evenodd" d="M135.775 0.205368L142.431 0.143555L146.962 15.8894L151 29.9997L140.781 28.1257C140.817 27.8757 140.836 27.514 140.856 27.1166L140.856 27.1162V27.1162C140.9 26.2618 140.952 25.2426 141.212 24.8164C141.606 24.7782 142.008 24.8441 142.402 24.9087C142.489 24.9228 142.574 24.9369 142.66 24.9498L141.38 20.5458L135.384 19.2956L133.991 23.8982L135.37 23.7758L135.288 27.4088L127.799 26.4323C127.78 25.3702 127.836 24.3591 127.967 23.305L129.584 23.6923L131.698 15.1105L135.775 0.205368ZM138.105 8.85595L136.379 15.2405L136.244 15.8181C136.479 16.0454 136.81 16.0861 137.14 16.1267C137.23 16.1377 137.32 16.1488 137.408 16.1636C138.447 16.34 139.474 16.5457 140.503 16.7718L140.039 15.5664L138.105 8.85595Z" fill="#1E1E1E"/>
<path id="Union_2" fill-rule="evenodd" clip-rule="evenodd" d="M15.1394 0.534902L0 0.463867C0.893796 2.13731 2.29466 3.25393 3.68669 4.36357C5.28394 5.63672 6.86953 6.90065 7.66399 8.98559C9.01068 7.96293 9.84815 7.05917 10.1235 5.35034C11.2899 5.33389 12.4559 5.31893 13.6223 5.31046C14.5432 5.30398 15.8041 5.14919 16.5333 5.81144C17.1515 6.37299 17.2251 7.34281 17.2164 8.11946C17.2058 9.05413 17.0725 10.0225 16.3711 10.7144C15.6795 11.3965 14.8192 11.579 13.9447 11.7644C13.5162 11.8552 13.0844 11.9466 12.6673 12.0979C10.6755 12.8205 8.84481 14.7953 7.64671 16.4782L7.59657 16.5235C5.69117 18.7029 3.99137 21.759 3.53078 24.6143C3.30343 26.0223 3.34959 27.4243 3.39626 28.841L3.4032 29.0534L22.8894 26.5669C22.9085 24.214 23.1956 22.0822 23.6337 19.7737C22.6267 20.4793 21.635 21.3023 20.51 21.8153C19.4095 22.3173 18.0888 22.5082 16.8523 22.6874C16.5882 22.7255 16.328 22.7632 16.0746 22.803C15.4035 22.909 14.7321 23.0089 14.0609 23.1089C12.2918 23.3726 10.5248 23.636 8.77115 24.0039L8.78023 23.8053C8.87451 22.0112 9.22996 19.9641 10.745 18.7755C11.3594 18.2934 12.3125 18.0586 13.1631 17.8493C13.4063 17.7895 13.6412 17.7316 13.8574 17.6706C15.909 17.0926 17.8528 16.3187 19.4646 14.9044C21.38 13.4763 23.0992 11.1478 23.4061 8.73609C23.6368 6.92133 23.3198 5.07417 22.1618 3.59938C20.5467 1.5431 17.6418 0.77368 15.1394 0.534902Z" fill="#1E1E1E"/>
<path id="Subtract_2" fill-rule="evenodd" clip-rule="evenodd" d="M72.4728 0.144728C73.9839 0.145226 75.495 0.146223 77.006 0.148217C77.473 0.148716 77.9492 0.140989 78.4303 0.133262H78.4333C80.3401 0.102854 82.3241 0.0712001 84.1227 0.546762C84.9811 0.773825 85.7256 1.16564 86.351 1.79449C86.9353 2.38171 87.2595 3.04495 87.5013 3.82235L87.5597 4.00031C87.9381 5.23084 88.1866 11.4114 87.5829 12.5001L87.3641 12.8401C86.3088 13.8356 85.7579 13.9131 84.3556 13.9759C84.5148 14.4407 84.6715 14.9285 84.832 15.428L84.8339 15.434L84.8346 15.4362C85.4971 17.4982 86.2224 19.7557 87.4393 21.39C87.9113 22.024 88.5241 22.5514 89.1259 23.0691C89.217 23.1474 89.3078 23.2257 89.3979 23.3039L81.6489 23.0544L78.3986 14.0262L75.8756 13.9335L75.8914 21.1831C75.9561 21.9777 76.4357 22.3795 76.9875 22.8418C77.0635 22.9054 77.1408 22.9702 77.2186 23.0372L68.7285 23.1606C69.2119 22.1898 69.7256 21.1537 69.9047 20.0769C70.002 19.491 69.9878 18.8648 69.9742 18.2557C69.9699 18.0693 69.9658 17.8843 69.9648 17.7026C69.9626 17.249 69.9585 16.7956 69.9534 16.3422C69.9457 15.658 69.9354 14.9741 69.9252 14.2899L69.9137 13.5123C69.8675 10.2816 69.8997 7.01769 69.9737 3.78721C69.8174 2.41162 69.2749 1.33887 68.5903 0.144728H72.4728ZM76.7521 4.10425C76.4683 4.12095 76.2116 4.13615 75.9978 4.14288L76.027 11.0338C76.3747 11.031 76.7709 11.0425 77.192 11.0547C78.6576 11.0968 80.425 11.1477 81.4986 10.644C82.139 9.63676 82.0827 7.17795 81.8352 6.00998C81.706 5.40058 81.4446 4.85398 80.9114 4.49083C80.0589 3.91009 78.1004 4.02524 76.7521 4.10425Z" fill="#1E1E1E"/>
<path id="Subtract_3" fill-rule="evenodd" clip-rule="evenodd" d="M34.0531 0.282416L34.0517 0.282423C32.0914 0.29239 30.1262 0.302383 28.1737 0.414267L28.317 0.628369C28.8583 1.43663 29.3856 2.22409 29.6356 3.1804C29.9309 4.31023 29.8693 5.63323 29.8107 6.88968C29.7885 7.36423 29.7668 7.82935 29.765 8.271C29.7621 8.94936 29.77 9.63244 29.7778 10.317L29.7779 10.3226C29.7944 11.7552 29.8109 13.1944 29.7291 14.6103C29.3559 14.5291 28.9261 14.6014 28.5298 14.6681L28.5178 14.6702C28.4224 14.6862 28.329 14.7018 28.2388 14.7148C27.1647 14.869 26.0697 15.055 25.0299 15.3718C23.1865 15.9338 21.8685 17.1113 20.9778 18.775C22.0583 18.5513 23.1162 18.281 24.1713 18.0114L24.1728 18.011C26.0072 17.5422 27.8329 17.0759 29.7529 16.8595L29.9131 23.5705L27.9201 26.0108L37.4037 25.0084C36.6546 24.3471 35.9586 23.6844 35.487 22.7993L35.5102 16.7234L42.6462 16.1492C44.6908 15.8585 45.8784 15.0555 47.0813 13.4429C47.1108 13.3758 47.1416 13.308 47.1726 13.2395L47.1728 13.2391C47.3369 12.8763 47.511 12.4916 47.5696 12.1081C47.6844 11.3569 47.6606 10.5466 47.6375 9.76025C47.6296 9.49181 47.6219 9.22611 47.6197 8.96665C47.6167 8.60773 47.6252 8.22165 47.6339 7.82136C47.6665 6.3376 47.7033 4.65594 47.1793 3.42217C46.6634 2.20784 45.7662 1.26445 44.5147 0.782154C42.5562 0.0273454 39.9584 0.127841 37.6458 0.217306L37.6379 0.217612C37.0166 0.2417 36.416 0.264987 35.854 0.270452C35.2545 0.276434 34.654 0.279425 34.0531 0.282416ZM36.7152 4.27271C36.3667 4.29769 36.0504 4.32035 35.7913 4.32935C35.5017 4.83339 35.5844 9.29844 35.6276 11.628C35.6377 12.1766 35.6457 12.6068 35.6461 12.8389C36.0744 12.8108 36.5141 12.7906 36.9588 12.7702C38.3325 12.707 39.7543 12.6417 41.0392 12.3351C41.8083 11.2266 41.7793 10.0731 41.748 8.83049C41.742 8.59195 41.7359 8.35012 41.7353 8.10468C41.7349 7.91924 41.7383 7.72876 41.7418 7.53597C41.7517 6.97816 41.7619 6.40107 41.6819 5.87093C41.6008 5.33597 41.3119 4.90004 40.8627 4.59555C40.0352 4.0348 38.1151 4.17239 36.7152 4.27271Z" fill="#1E1E1E"/>
<path id="Subtract_4" fill-rule="evenodd" clip-rule="evenodd" d="M49.2162 13.1146C49.2258 11.1872 49.2358 9.26 49.2498 7.33308C49.2515 7.09353 49.2484 6.84689 49.2453 6.59631L49.2452 6.58858L49.2452 6.58824C49.2334 5.6457 49.221 4.65009 49.4569 3.77435C49.6225 3.15921 49.9796 2.57223 50.4074 2.10016C51.6602 0.717093 53.6968 0.294123 55.4995 0.220595C56.6498 0.173487 57.8069 0.17324 58.9593 0.172993L58.9776 0.172989H59.4131L59.4137 0.172989C61.7026 0.170995 64.3862 0.168657 66.1344 1.88032C67.7326 3.44509 67.7073 5.93107 67.6857 8.05739L67.6856 8.07149C67.6838 8.2486 67.682 8.42309 67.6813 8.59451C67.6749 10.0479 67.6638 11.5015 67.6516 12.9551C67.6506 14.2706 67.6485 15.5866 67.6428 16.9021C67.6419 17.0986 67.6433 17.2963 67.6447 17.4947L67.6447 17.4961V17.4961C67.6565 19.1738 67.6686 20.8943 66.321 22.16C65.8131 22.637 65.0991 22.9713 64.4287 23.1505C63.0263 23.5256 61.4265 23.553 59.9122 23.5789C59.5184 23.5857 59.1303 23.5924 58.7531 23.6051C58.3474 23.6187 57.9393 23.64 57.5303 23.6612L57.5218 23.6617L57.5167 23.662C56.5116 23.7145 55.5006 23.7673 54.5046 23.7063C52.816 23.6034 51.1449 23.1335 50.024 21.7911C49.141 20.7339 49.1681 19.1157 49.1915 17.7262L49.1915 17.7259C49.1954 17.4931 49.1992 17.2668 49.1986 17.0504C49.195 15.7384 49.2009 14.4264 49.2162 13.1146ZM55.3135 7.82623C55.3062 9.48904 55.3031 11.1516 55.3008 12.8144C55.2936 14.31 55.2874 15.8059 55.2876 17.3016C55.2877 17.4253 55.284 17.5559 55.2802 17.6905C55.2607 18.3836 55.2382 19.1824 55.7051 19.6874C56.0502 20.0608 56.4372 20.2004 56.9422 20.2048C57.0944 20.2061 57.2649 20.2103 57.4483 20.2148C58.687 20.245 60.5109 20.2896 61.2474 19.5657C61.4435 19.373 61.6197 19.1637 61.6776 18.8909C61.791 18.3559 61.7822 17.7584 61.7738 17.1907C61.7714 17.0307 61.7691 16.8729 61.7695 16.7197C61.7729 15.5032 61.7713 14.2866 61.769 13.0699C61.7747 11.6332 61.7791 10.1965 61.7783 8.75986C61.7782 8.54917 61.7838 8.32703 61.7897 8.09812C61.818 6.98321 61.8505 5.7078 61.2384 4.81378C60.9134 4.33906 60.3242 4.17418 59.7814 4.08332C58.7688 3.91436 56.6846 3.88679 55.8712 4.58867C55.6583 4.77243 55.4994 5.10142 55.4238 5.36762C55.2666 5.92171 55.2855 6.60307 55.303 7.23279C55.3087 7.43816 55.3142 7.63805 55.3135 7.82623Z" fill="#1E1E1E"/>
<path id="Subtract_5" fill-rule="evenodd" clip-rule="evenodd" d="M89.9448 9.7094L89.9449 9.70263L89.9449 9.7009C89.9481 9.26704 89.9513 8.83343 89.9531 8.40007C89.9544 8.07456 89.9441 7.71714 89.9332 7.34127L89.9332 7.34112C89.8855 5.69663 89.8276 3.70075 90.6956 2.48247C91.647 1.14776 93.1169 0.632818 94.6862 0.358149C97.4014 -0.116664 100.934 -0.14782 103.626 0.436911C104.51 0.62883 105.513 0.937397 106.25 1.47328C107.485 2.37181 108.106 3.62028 108.297 5.09657C108.428 5.92675 108.415 6.78386 108.403 7.63075V7.6309C108.399 7.86893 108.396 8.10621 108.396 8.34175C108.394 9.73778 108.389 11.1335 108.384 12.5293C108.383 12.9031 108.381 13.2769 108.38 13.6507C108.378 14.2844 108.396 14.9428 108.415 15.6098L108.415 15.6118C108.457 17.1309 108.5 18.6959 108.308 20.1216C108.209 20.8569 107.991 21.5543 107.529 22.1512C106.574 23.3837 105.044 23.8628 103.533 23.9937C102.598 24.0746 101.652 24.0207 100.711 23.9672L100.708 23.967L100.701 23.9666C100.447 23.952 100.194 23.9375 99.9415 23.9259L99.6422 23.9121C96.8865 23.7863 94.1186 23.6597 91.9019 21.8058C90.7371 20.832 90.1719 19.7158 90.075 18.2111L89.9464 13.2088C89.9274 12.0436 89.9361 10.8759 89.9448 9.7094ZM95.8824 8.1935C95.8783 9.95865 95.8822 11.7238 95.8876 13.4887C95.885 13.7938 95.8676 14.1427 95.8489 14.5168C95.7673 16.1529 95.6615 18.2715 96.67 19.3202C97.4773 20.1596 99.0931 20.2574 100.211 20.2369C100.801 20.2262 101.443 20.1397 101.882 19.7027C102.669 18.9185 102.546 16.3884 102.466 14.7277C102.447 14.3466 102.431 14.0113 102.428 13.7534C102.428 11.9775 102.427 10.2014 102.42 8.4255C102.419 8.20857 102.425 7.98056 102.43 7.74692C102.448 6.96125 102.468 6.11198 102.261 5.40691C102.176 5.11774 102.015 4.87221 101.797 4.66241C101.173 4.06059 99.8159 4.03328 98.9756 4.03941C98.1032 4.04604 96.9674 4.12874 96.3417 4.8028C96.095 5.06875 95.9772 5.37807 95.9183 5.72926C95.8281 6.26815 95.848 6.88344 95.8671 7.47236C95.8751 7.71995 95.8829 7.96287 95.8824 8.1935Z" fill="#1E1E1E"/>
</g>
<defs>
<clipPath id="clip0_2320_205">
<rect width="151" height="30" fill="white"/>
</clipPath>
</defs>
</svg>
