<svg width="152" height="30" viewBox="0 0 152 30" fill="none" xmlns="http://www.w3.org/2000/svg">
<g id="logo" clip-path="url(#clip0_2286_5247)">
<g id="Frame 11" clip-path="url(#clip1_2286_5247)">
<path id="Union" fill-rule="evenodd" clip-rule="evenodd" d="M112.529 1.6043C111.311 2.52302 111.034 3.44049 110.83 4.86693C110.626 6.16351 110.674 7.58969 110.722 8.97625C110.743 9.58665 110.763 10.1891 110.762 10.7693C110.76 11.5986 110.732 12.4535 110.704 13.3179C110.637 15.3876 110.568 17.5124 110.847 19.4737C111.003 20.5752 111.266 21.5953 111.928 22.5173C113.359 24.5108 115.709 25.1291 118.031 25.4544C118.251 25.4853 118.48 25.519 118.716 25.5536C121.271 25.9282 124.678 26.4282 126.725 24.8672C127.755 24.0813 128.374 23.0768 128.521 21.7932L128.665 14.9183L119.197 14.1967C119.191 14.5407 119.141 14.8871 119.31 15.1997L123.121 15.5082C123.125 16.6667 123.129 17.8247 123.128 18.9832C123.128 19.1398 123.133 19.3023 123.138 19.4675C123.151 19.9049 123.165 20.3601 123.088 20.7641C123.045 20.9951 122.938 21.1395 122.776 21.3057C122.388 21.7028 121.795 21.855 121.258 21.8807C120.062 21.9373 118.214 21.8241 117.325 20.9428C117.01 20.6307 116.76 20.1342 116.694 19.6983C116.508 18.4842 116.553 17.0892 116.596 15.7747C116.61 15.3427 116.624 14.9195 116.629 14.5145C116.666 11.6439 116.702 8.72625 116.58 5.85893L116.598 5.80958C116.729 5.46462 116.875 5.07754 117.115 4.79589C117.521 4.31784 118.404 4.22936 118.994 4.19347C119.844 4.14162 121.554 4.12592 122.188 4.74779C122.734 5.28367 122.746 6.28364 122.755 7.06628C122.756 7.18417 122.757 7.29708 122.761 7.40276L128.219 7.46308L128.231 7.31104C128.359 5.64582 128.502 3.78969 127.429 2.38145C126.447 1.0911 124.82 0.554225 123.273 0.322676C121.999 0.132501 120.664 0.144964 119.377 0.156927H119.352L119.265 0.157675C117.02 0.178113 114.388 0.20229 112.529 1.6043Z" fill="white"/>
<path id="Subtract" fill-rule="evenodd" clip-rule="evenodd" d="M136.283 0.205642L142.94 0.143829L147.47 15.8897L151.508 30L141.289 28.1259C141.326 27.876 141.344 27.5143 141.364 27.1169L141.364 27.1165V27.1165C141.408 26.2621 141.46 25.2429 141.72 24.8167C142.114 24.7785 142.517 24.8444 142.911 24.909C142.997 24.9231 143.083 24.9372 143.168 24.95L141.889 20.5461L135.892 19.2959L134.5 23.8985L135.878 23.7761L135.796 27.4091L128.307 26.4326C128.288 25.3705 128.344 24.3593 128.475 23.3053L130.092 23.6926L132.206 15.1108L136.283 0.205642ZM138.613 8.85622L136.887 15.2408L136.752 15.8183C136.987 16.0456 137.319 16.0864 137.649 16.1269C137.739 16.138 137.829 16.1491 137.916 16.1639C138.955 16.3403 139.983 16.546 141.011 16.7721L140.547 15.5667L138.613 8.85622Z" fill="white"/>
<path id="Union_2" fill-rule="evenodd" clip-rule="evenodd" d="M15.6477 0.534628L0.508301 0.463593C1.4021 2.13703 2.80296 3.25365 4.19499 4.3633C5.79224 5.63645 7.37783 6.90037 8.17229 8.98531C9.51898 7.96266 10.3565 7.05889 10.6318 5.35006C11.7982 5.33361 12.9642 5.31866 14.1306 5.31018C15.0515 5.3037 16.3124 5.14892 17.0416 5.81117C17.6598 6.37272 17.7334 7.34253 17.7247 8.11918C17.7141 9.05386 17.5808 10.0222 16.8794 10.7141C16.1878 11.3963 15.3275 11.5787 14.453 11.7642C14.0245 11.8549 13.5927 11.9464 13.1756 12.0977C11.1838 12.8202 9.35311 14.795 8.15501 16.4779L8.10487 16.5233C6.19947 18.7027 4.49967 21.7587 4.03909 24.614C3.81173 26.022 3.85789 27.424 3.90456 28.8408L3.9115 29.0531L23.3977 26.5666C23.4168 24.2137 23.7039 22.0819 24.142 19.7734C23.1351 20.479 22.1433 21.3021 21.0183 21.815C19.9178 22.317 18.5971 22.5079 17.3606 22.6871C17.0965 22.7253 16.8363 22.7629 16.5829 22.8028C15.9118 22.9087 15.2404 23.0086 14.5692 23.1086C12.8001 23.3723 11.0331 23.6357 9.27945 24.0036L9.28853 23.805C9.38281 22.0109 9.73826 19.9639 11.2533 18.7752C11.8677 18.2932 12.8208 18.0584 13.6714 17.849C13.9146 17.7892 14.1495 17.7314 14.3657 17.6703C16.4173 17.0923 18.3611 16.3184 19.9729 14.9042C21.8883 13.476 23.6075 11.1475 23.9144 8.73582C24.1451 6.92106 23.8281 5.0739 22.6701 3.59911C21.055 1.54283 18.1501 0.773405 15.6477 0.534628Z" fill="white"/>
<path id="Subtract_2" fill-rule="evenodd" clip-rule="evenodd" d="M72.9811 0.144697C74.4922 0.145196 76.0033 0.146193 77.5143 0.148187C77.9813 0.148685 78.4575 0.140958 78.9386 0.133232H78.9416C80.8484 0.102824 82.8324 0.0711696 84.631 0.546731C85.4894 0.773794 86.2339 1.16561 86.8593 1.79446C87.4436 2.38168 87.7678 3.04492 88.0096 3.82232L88.068 4.00028C88.4464 5.23081 88.6949 11.4114 88.0912 12.5001L87.8724 12.84C86.8171 13.8355 86.2662 13.913 84.8639 13.9759C85.0231 14.4407 85.1798 14.9285 85.3403 15.428L85.3422 15.4339L85.3429 15.4362C86.0054 17.4982 86.7307 19.7556 87.9476 21.3899C88.4196 22.024 89.0324 22.5514 89.6342 23.0691C89.7253 23.1474 89.8161 23.2256 89.9062 23.3039L82.1572 23.0544L78.9069 14.0262L76.3839 13.9335L76.3997 21.1831C76.4644 21.9777 76.944 22.3794 77.4958 22.8418C77.5718 22.9053 77.6491 22.9701 77.7269 23.0372L69.2368 23.1606C69.7202 22.1898 70.2339 21.1536 70.413 20.0769C70.5103 19.4909 70.4962 18.8648 70.4825 18.2557C70.4782 18.0692 70.4741 17.8843 70.4731 17.7026C70.4709 17.249 70.4668 16.7956 70.4617 16.3422C70.454 15.658 70.4437 14.9741 70.4335 14.2899L70.422 13.5123C70.3758 10.2815 70.408 7.01766 70.482 3.78718C70.3257 2.41159 69.7832 1.33883 69.0986 0.144697H72.9811ZM77.2604 4.10422C76.9766 4.12092 76.7199 4.13612 76.5061 4.14285L76.5353 11.0338C76.883 11.031 77.2792 11.0425 77.7003 11.0547C79.1659 11.0968 80.9333 11.1477 82.0069 10.6439C82.6473 9.63673 82.591 7.17792 82.3435 6.00995C82.2143 5.40055 81.9529 4.85395 81.4197 4.4908C80.5672 3.91006 78.6087 4.02521 77.2604 4.10422Z" fill="white"/>
<path id="Subtract_3" fill-rule="evenodd" clip-rule="evenodd" d="M34.5614 0.28269L34.56 0.282698C32.5997 0.292665 30.6345 0.302657 28.682 0.414542L28.8253 0.628644C29.3666 1.43691 29.8939 2.22437 30.1439 3.18067C30.4392 4.31051 30.3776 5.6335 30.319 6.88995C30.2968 7.3645 30.2751 7.82963 30.2733 8.27128C30.2704 8.94963 30.2783 9.63271 30.2861 10.3173L30.2862 10.3228C30.3027 11.7555 30.3192 13.1946 30.2374 14.6106C29.8642 14.5293 29.4344 14.6016 29.0381 14.6684L29.0261 14.6704C28.9307 14.6864 28.8373 14.7021 28.7471 14.715C27.673 14.8693 26.578 15.0553 25.5382 15.372C23.6948 15.9341 22.3769 17.1115 21.4861 18.7753C22.5666 18.5515 23.6245 18.2812 24.6796 18.0117L24.6811 18.0113C26.5155 17.5425 28.3412 17.0761 30.2612 16.8598L30.4214 23.5707L28.4284 26.0111L37.912 25.0086C37.1629 24.3474 36.4669 23.6847 35.9953 22.7996L36.0185 16.7237L43.1545 16.1494C45.1991 15.8588 46.3867 15.0558 47.5896 13.4431C47.6191 13.3761 47.6499 13.3083 47.6809 13.2397L47.6811 13.2393C47.8452 12.8766 48.0193 12.4919 48.0779 12.1084C48.1927 11.3572 48.1689 10.5469 48.1458 9.76052C48.1379 9.49208 48.1302 9.22639 48.128 8.96692C48.125 8.60801 48.1335 8.22192 48.1422 7.82164C48.1748 6.33787 48.2116 4.65621 47.6876 3.42244C47.1717 2.20812 46.2745 1.26472 45.023 0.782429C43.0645 0.0276201 40.4667 0.128116 38.1541 0.217581L38.1462 0.217887C37.5249 0.241975 36.9243 0.265262 36.3623 0.270727C35.7628 0.276708 35.1623 0.279699 34.5614 0.28269ZM37.2235 4.27299C36.875 4.29796 36.5587 4.32062 36.2996 4.32963C36.01 4.83367 36.0927 9.29872 36.1359 11.6282C36.146 12.1769 36.154 12.6071 36.1544 12.8392C36.5827 12.8111 37.0224 12.7909 37.4671 12.7704C38.8408 12.7073 40.2626 12.6419 41.5475 12.3354C42.3166 11.2268 42.2876 10.0734 42.2563 8.83077C42.2503 8.59222 42.2442 8.35039 42.2436 8.10496C42.2432 7.91951 42.2466 7.72903 42.2501 7.53625C42.26 6.97843 42.2702 6.40134 42.1902 5.8712C42.1091 5.33624 41.8202 4.90031 41.371 4.59582C40.5435 4.03508 38.6234 4.17267 37.2235 4.27299Z" fill="white"/>
<path id="Subtract_4" fill-rule="evenodd" clip-rule="evenodd" d="M49.7245 13.1141C49.7341 11.1867 49.7441 9.25951 49.7581 7.33259C49.7598 7.09304 49.7567 6.8464 49.7536 6.59583L49.7535 6.58809L49.7535 6.58776C49.7417 5.64521 49.7293 4.6496 49.9652 3.77386C50.1308 3.15872 50.4879 2.57174 50.9157 2.09967C52.1685 0.716605 54.2052 0.293635 56.0078 0.220107C57.1581 0.172999 58.3152 0.172752 59.4676 0.172505L59.4859 0.172501H59.9214L59.922 0.1725C62.2109 0.170507 64.8945 0.168169 66.6427 1.87984C68.2409 3.4446 68.2156 5.93058 68.194 8.0569L68.1939 8.071C68.1921 8.24811 68.1903 8.42261 68.1896 8.59403C68.1832 10.0474 68.1721 11.501 68.1599 12.9546C68.1589 14.2701 68.1568 15.5861 68.1511 16.9016C68.1502 17.0981 68.1516 17.2958 68.153 17.4942L68.153 17.4956V17.4956C68.1648 19.1733 68.1769 20.8938 66.8293 22.1595C66.3214 22.6365 65.6074 22.9708 64.937 23.15C63.5346 23.5251 61.9348 23.5525 60.4205 23.5784C60.0267 23.5852 59.6386 23.5919 59.2614 23.6046C58.8557 23.6182 58.4476 23.6395 58.0386 23.6608L58.0301 23.6612L58.025 23.6615C57.0199 23.714 56.0089 23.7668 55.0129 23.7058C53.3243 23.6029 51.6532 23.133 50.5323 21.7906C49.6493 20.7334 49.6764 19.1152 49.6998 17.7257L49.6998 17.7254C49.7037 17.4926 49.7075 17.2663 49.7069 17.0499C49.7033 15.7379 49.7092 14.4259 49.7245 13.1141ZM55.8218 7.82574C55.8145 9.48855 55.8114 11.1511 55.8091 12.8139C55.8019 14.3096 55.7957 15.8054 55.7959 17.3011C55.796 17.4248 55.7923 17.5554 55.7885 17.69C55.769 18.3832 55.7465 19.1819 56.2134 19.687C56.5585 20.0604 56.9455 20.2 57.4505 20.2043C57.6028 20.2056 57.7733 20.2098 57.9566 20.2143C59.1953 20.2445 61.0192 20.2891 61.7557 19.5652C61.9518 19.3725 62.128 19.1632 62.1859 18.8904C62.2993 18.3554 62.2905 17.7579 62.2821 17.1903C62.2797 17.0302 62.2774 16.8724 62.2778 16.7192C62.2812 15.5028 62.2796 14.2861 62.2773 13.0694C62.283 11.6327 62.2874 10.1961 62.2866 8.75937C62.2865 8.54869 62.2921 8.32654 62.298 8.09763C62.3263 6.98273 62.3588 5.70731 61.7467 4.81329C61.4217 4.33857 60.8325 4.17369 60.2897 4.08283C59.2771 3.91387 57.1929 3.8863 56.3795 4.58818C56.1666 4.77194 56.0077 5.10093 55.9321 5.36713C55.7749 5.92122 55.7938 6.60258 55.8113 7.2323C55.817 7.43768 55.8225 7.63756 55.8218 7.82574Z" fill="white"/>
<path id="Subtract_5" fill-rule="evenodd" clip-rule="evenodd" d="M90.4531 9.70937L90.4532 9.7026L90.4532 9.70087C90.4564 9.26701 90.4596 8.8334 90.4614 8.40004C90.4627 8.07453 90.4524 7.71711 90.4415 7.34124L90.4415 7.34109C90.3938 5.6966 90.3359 3.70072 91.2039 2.48244C92.1553 1.14773 93.6252 0.632788 95.1945 0.358119C97.9097 -0.116695 101.442 -0.147851 104.134 0.43688C105.018 0.6288 106.021 0.937366 106.758 1.47325C107.994 2.37178 108.614 3.62025 108.806 5.09653C108.936 5.92672 108.924 6.78383 108.911 7.63072V7.63087C108.908 7.8689 108.904 8.10618 108.904 8.34172C108.902 9.73775 108.897 11.1335 108.892 12.5293C108.891 12.9031 108.89 13.2768 108.889 13.6507C108.886 14.2844 108.905 14.9427 108.923 15.6098L108.923 15.6117C108.965 17.1309 109.008 18.6959 108.816 20.1216C108.718 20.8569 108.5 21.5542 108.037 22.1512C107.082 23.3837 105.552 23.8628 104.041 23.9936C103.106 24.0745 102.16 24.0207 101.22 23.9671L101.216 23.967L101.21 23.9666C100.956 23.952 100.702 23.9374 100.45 23.9258L100.15 23.9121C97.3948 23.7862 94.6269 23.6596 92.4102 21.8057C91.2454 20.8319 90.6802 19.7158 90.5833 18.2111L90.4547 13.2087C90.4357 12.0435 90.4444 10.8758 90.4531 9.70937ZM96.3907 8.19347C96.3866 9.95862 96.3905 11.7238 96.3959 13.4887C96.3933 13.7938 96.3759 14.1427 96.3572 14.5168C96.2756 16.1529 96.1698 18.2715 97.1783 19.3201C97.9856 20.1596 99.6014 20.2573 100.719 20.2369C101.309 20.2262 101.951 20.1397 102.39 19.7027C103.178 18.9184 103.055 16.3883 102.974 14.7277C102.956 14.3466 102.939 14.0113 102.937 13.7534C102.937 11.9775 102.936 10.2013 102.929 8.42547C102.928 8.20854 102.933 7.98053 102.938 7.74689C102.956 6.96122 102.976 6.11195 102.769 5.40688C102.684 5.11771 102.523 4.87218 102.306 4.66238C101.682 4.06056 100.324 4.03325 99.4839 4.03938C98.6115 4.04601 97.4757 4.12871 96.85 4.80277C96.6033 5.06872 96.4855 5.37804 96.4266 5.72923C96.3364 6.26812 96.3563 6.88341 96.3754 7.47233C96.3834 7.71992 96.3912 7.96284 96.3907 8.19347Z" fill="white"/>
</g>
</g>
<defs>
<clipPath id="clip0_2286_5247">
<rect width="151" height="30" fill="white" transform="translate(0.508301)"/>
</clipPath>
<clipPath id="clip1_2286_5247">
<rect width="151" height="30" fill="white" transform="translate(0.508301)"/>
</clipPath>
</defs>
</svg>
