<svg xmlns="http://www.w3.org/2000/svg" width="28" height="28" viewBox="0 0 28 28" fill="#E20D0D">
    <path
        d="M24.0625 5.24999V10.5C24.0625 10.616 24.0164 10.7273 23.9344 10.8094C23.8523 10.8914 23.741 10.9375 23.625 10.9375H18.375C18.259 10.9375 18.1477 10.8914 18.0656 10.8094C17.9836 10.7273 17.9375 10.616 17.9375 10.5C17.9375 10.384 17.9836 10.2727 18.0656 10.1906C18.1477 10.1086 18.259 10.0625 18.375 10.0625H22.5684L20.2223 7.7153C18.5125 6.00565 16.1977 5.03895 13.7798 5.02482C11.3619 5.01069 9.03593 5.95028 7.30625 7.63983C7.26517 7.68005 7.21657 7.71178 7.16323 7.73322C7.10989 7.75466 7.05284 7.76537 6.99536 7.76477C6.93787 7.76416 6.88107 7.75223 6.8282 7.72967C6.77532 7.70711 6.7274 7.67435 6.68719 7.63327C6.64697 7.59219 6.61524 7.5436 6.5938 7.49025C6.57237 7.43691 6.56165 7.37987 6.56226 7.32238C6.56287 7.2649 6.57479 7.20809 6.59735 7.15522C6.61992 7.10234 6.65267 7.05443 6.69375 7.01421C8.58823 5.1637 11.1359 4.13464 13.7841 4.1502C16.4324 4.16576 18.9677 5.22469 20.8403 7.09733L23.1875 9.44343V5.24999C23.1875 5.13396 23.2336 5.02268 23.3156 4.94063C23.3977 4.85858 23.509 4.81249 23.625 4.81249C23.741 4.81249 23.8523 4.85858 23.9344 4.94063C24.0164 5.02268 24.0625 5.13396 24.0625 5.24999ZM20.6938 20.3601C18.9815 22.0419 16.6756 22.9814 14.2756 22.9753H14.2242C11.8038 22.9679 9.48519 22.0002 7.77766 20.2847L5.43156 17.9375H9.625C9.74103 17.9375 9.85231 17.8914 9.93436 17.8094C10.0164 17.7273 10.0625 17.616 10.0625 17.5C10.0625 17.384 10.0164 17.2727 9.93436 17.1906C9.85231 17.1086 9.74103 17.0625 9.625 17.0625H4.375C4.25897 17.0625 4.14769 17.1086 4.06564 17.1906C3.98359 17.2727 3.9375 17.384 3.9375 17.5V22.75C3.9375 22.866 3.98359 22.9773 4.06564 23.0593C4.14769 23.1414 4.25897 23.1875 4.375 23.1875C4.49103 23.1875 4.60231 23.1414 4.68436 23.0593C4.76641 22.9773 4.8125 22.866 4.8125 22.75V18.5566L7.15969 20.9026C9.02905 22.7819 11.5681 23.8421 14.2188 23.8503H14.2745C16.9035 23.8565 19.4291 22.8274 21.3052 20.9858C21.3462 20.9456 21.379 20.8976 21.4016 20.8448C21.4241 20.7919 21.436 20.7351 21.4366 20.6776C21.4373 20.6201 21.4265 20.5631 21.4051 20.5097C21.3837 20.4564 21.3519 20.4078 21.3117 20.3667C21.2715 20.3256 21.2236 20.2929 21.1707 20.2703C21.1178 20.2478 21.061 20.2358 21.0035 20.2352C20.9461 20.2346 20.889 20.2453 20.8357 20.2668C20.7823 20.2882 20.7337 20.3199 20.6927 20.3601H20.6938Z" />
</svg>