<svg xmlns="http://www.w3.org/2000/svg" width="28" height="28" viewBox="0 0 28 28" fill="#E20D0D">
    <path
        d="M24.255 7.61907L14.63 2.34938C14.4368 2.24369 14.2202 2.18829 14 2.18829C13.7798 2.18829 13.5632 2.24369 13.37 2.34938L3.745 7.61907C3.53852 7.73204 3.36622 7.89846 3.24615 8.10089C3.12607 8.30333 3.06264 8.53433 3.0625 8.76969V19.2303C3.06264 19.4657 3.12607 19.6967 3.24615 19.8991C3.36622 20.1015 3.53852 20.268 3.745 20.3809L13.37 25.6506C13.563 25.7568 13.7797 25.8125 14 25.8125C14.2203 25.8125 14.437 25.7568 14.63 25.6506L24.255 20.3809C24.4615 20.268 24.6338 20.1015 24.7539 19.8991C24.8739 19.6967 24.9374 19.4657 24.9375 19.2303V8.76969C24.9374 8.53433 24.8739 8.30333 24.7539 8.10089C24.6338 7.89846 24.4615 7.73204 24.255 7.61907ZM13.79 3.11719C13.8542 3.08137 13.9265 3.06256 14 3.06256C14.0735 3.06256 14.1458 3.08137 14.21 3.11719L23.6983 8.3125L19.5234 10.5973C19.5036 10.5809 19.4824 10.5663 19.46 10.5536L9.835 5.28391L13.79 3.11719ZM14 13.6172L4.30172 8.3125L8.92062 5.78266L18.6189 11.0917L14 13.6172ZM4.165 19.6109C4.09628 19.5733 4.03892 19.518 3.9989 19.4506C3.95888 19.3833 3.93768 19.3065 3.9375 19.2281V9.10985L13.5625 14.3773V24.7581L4.165 19.6109ZM23.835 19.6109L14.4375 24.7516V14.3773L18.8125 11.9831V16.625C18.8125 16.741 18.8586 16.8523 18.9406 16.9344C19.0227 17.0164 19.134 17.0625 19.25 17.0625C19.366 17.0625 19.4773 17.0164 19.5594 16.9344C19.6414 16.8523 19.6875 16.741 19.6875 16.625V11.5041L24.0625 9.10985V19.2303C24.0623 19.3086 24.0411 19.3855 24.0011 19.4528C23.9611 19.5202 23.9037 19.5755 23.835 19.6131V19.6109Z" />
</svg>