<svg xmlns="http://www.w3.org/2000/svg" width="28" height="28" viewBox="0 0 28 28" fill="#E20D0D">
    <path
        d="M26.25 12.6875H22.9316L18.0655 7.8225C17.9441 7.7001 17.7996 7.60304 17.6403 7.53695C17.4811 7.47086 17.3104 7.43706 17.138 7.4375H4.84312C4.6268 7.43718 4.41375 7.49034 4.22293 7.59224C4.03211 7.69413 3.86943 7.84162 3.74938 8.02157L0.510781 12.8822C0.462915 12.9541 0.437416 13.0386 0.4375 13.125V18.375C0.4375 18.7231 0.575781 19.0569 0.821923 19.3031C1.06806 19.5492 1.4019 19.6875 1.75 19.6875H3.96922C4.07488 20.4159 4.43936 21.0819 4.99594 21.5636C5.55251 22.0453 6.26394 22.3104 7 22.3104C7.73606 22.3104 8.44749 22.0453 9.00406 21.5636C9.56064 21.0819 9.92512 20.4159 10.0308 19.6875H17.9692C18.0749 20.4159 18.4394 21.0819 18.9959 21.5636C19.5525 22.0453 20.2639 22.3104 21 22.3104C21.7361 22.3104 22.4475 22.0453 23.0041 21.5636C23.5606 21.0819 23.9251 20.4159 24.0308 19.6875H26.25C26.5981 19.6875 26.9319 19.5492 27.1781 19.3031C27.4242 19.0569 27.5625 18.7231 27.5625 18.375V14C27.5625 13.6519 27.4242 13.3181 27.1781 13.0719C26.9319 12.8258 26.5981 12.6875 26.25 12.6875ZM4.48438 8.50719C4.52384 8.44802 4.57714 8.39937 4.63965 8.36545C4.70217 8.33152 4.77201 8.31335 4.84312 8.3125H17.138C17.2537 8.3127 17.3646 8.35871 17.4464 8.44047L21.6934 12.6875H1.69203L4.48438 8.50719ZM7 21.4375C6.56735 21.4375 6.14442 21.3092 5.78469 21.0688C5.42496 20.8285 5.14458 20.4868 4.97901 20.0871C4.81345 19.6874 4.77013 19.2476 4.85453 18.8232C4.93894 18.3989 5.14728 18.0091 5.4532 17.7032C5.75913 17.3973 6.14891 17.1889 6.57324 17.1045C6.99757 17.0201 7.43741 17.0635 7.83712 17.229C8.23683 17.3946 8.57847 17.675 8.81884 18.0347C9.05921 18.3944 9.1875 18.8174 9.1875 19.25C9.1875 19.8302 8.95703 20.3866 8.5468 20.7968C8.13656 21.207 7.58016 21.4375 7 21.4375ZM21 21.4375C20.5674 21.4375 20.1444 21.3092 19.7847 21.0688C19.425 20.8285 19.1446 20.4868 18.979 20.0871C18.8134 19.6874 18.7701 19.2476 18.8545 18.8232C18.9389 18.3989 19.1473 18.0091 19.4532 17.7032C19.7591 17.3973 20.1489 17.1889 20.5732 17.1045C20.9976 17.0201 21.4374 17.0635 21.8371 17.229C22.2368 17.3946 22.5785 17.675 22.8188 18.0347C23.0592 18.3944 23.1875 18.8174 23.1875 19.25C23.1875 19.8302 22.957 20.3866 22.5468 20.7968C22.1366 21.207 21.5802 21.4375 21 21.4375ZM26.6875 18.375C26.6875 18.491 26.6414 18.6023 26.5594 18.6844C26.4773 18.7664 26.366 18.8125 26.25 18.8125H24.0308C23.9251 18.0841 23.5606 17.4181 23.0041 16.9364C22.4475 16.4547 21.7361 16.1896 21 16.1896C20.2639 16.1896 19.5525 16.4547 18.9959 16.9364C18.4394 17.4181 18.0749 18.0841 17.9692 18.8125H10.0308C9.92512 18.0841 9.56064 17.4181 9.00406 16.9364C8.44749 16.4547 7.73606 16.1896 7 16.1896C6.26394 16.1896 5.55251 16.4547 4.99594 16.9364C4.43936 17.4181 4.07488 18.0841 3.96922 18.8125H1.75C1.63397 18.8125 1.52269 18.7664 1.44064 18.6844C1.35859 18.6023 1.3125 18.491 1.3125 18.375V13.5625H26.25C26.366 13.5625 26.4773 13.6086 26.5594 13.6906C26.6414 13.7727 26.6875 13.884 26.6875 14V18.375Z" />
</svg>