<svg xmlns="http://www.w3.org/2000/svg" width="24" height="24" viewBox="0 0 24 24" fill="white">
    <path
        d="M21.0459 12.7959L14.2959 19.5459C14.0846 19.7572 13.7979 19.8759 13.4991 19.8759C13.2002 19.8759 12.9135 19.7572 12.7022 19.5459C12.4908 19.3345 12.3721 19.0479 12.3721 18.749C12.3721 18.4501 12.4908 18.1635 12.7022 17.9521L17.5312 13.1249H3.75C3.45163 13.1249 3.16548 13.0064 2.9545 12.7954C2.74353 12.5844 2.625 12.2983 2.625 11.9999C2.625 11.7016 2.74353 11.4154 2.9545 11.2044C3.16548 10.9934 3.45163 10.8749 3.75 10.8749H17.5312L12.7041 6.04492C12.4927 5.83358 12.374 5.54693 12.374 5.24804C12.374 4.94916 12.4927 4.66251 12.7041 4.45117C12.9154 4.23983 13.2021 4.12109 13.5009 4.12109C13.7998 4.12109 14.0865 4.23983 14.2978 4.45117L21.0478 11.2012C21.1527 11.3058 21.2359 11.4302 21.2926 11.5671C21.3493 11.704 21.3784 11.8507 21.3782 11.9989C21.3781 12.1471 21.3486 12.2938 21.2916 12.4305C21.2346 12.5673 21.1511 12.6914 21.0459 12.7959Z" />
</svg>