<svg xmlns="http://www.w3.org/2000/svg" width="28" height="28" viewBox="0 0 28 28" fill="#E20D0D">
    <path
        d="M26.25 23.1875H24.0625V10.5C24.0625 10.1519 23.9242 9.81806 23.6781 9.57192C23.4319 9.32578 23.0981 9.18749 22.75 9.18749H15.3125V3.49999C15.3129 3.26223 15.2486 3.02883 15.1266 2.82473C15.0047 2.62064 14.8295 2.45351 14.62 2.3412C14.4104 2.22889 14.1743 2.17561 13.9368 2.18707C13.6993 2.19853 13.4693 2.27428 13.2716 2.40624L4.52156 8.23921C4.34161 8.35927 4.19413 8.52195 4.09223 8.71277C3.99033 8.90359 3.93718 9.11664 3.9375 9.33296V23.1875H1.75C1.63397 23.1875 1.52269 23.2336 1.44064 23.3156C1.35859 23.3977 1.3125 23.509 1.3125 23.625C1.3125 23.741 1.35859 23.8523 1.44064 23.9344C1.52269 24.0164 1.63397 24.0625 1.75 24.0625H26.25C26.366 24.0625 26.4773 24.0164 26.5594 23.9344C26.6414 23.8523 26.6875 23.741 26.6875 23.625C26.6875 23.509 26.6414 23.3977 26.5594 23.3156C26.4773 23.2336 26.366 23.1875 26.25 23.1875ZM22.75 10.0625C22.866 10.0625 22.9773 10.1086 23.0594 10.1906C23.1414 10.2727 23.1875 10.384 23.1875 10.5V23.1875H15.3125V10.0625H22.75ZM4.8125 9.33406C4.81227 9.26183 4.82993 9.19066 4.8639 9.12692C4.89788 9.06317 4.9471 9.00883 5.00719 8.96874L13.7572 3.13578C13.8231 3.09181 13.8997 3.06656 13.9788 3.06272C14.058 3.05889 14.1366 3.07661 14.2065 3.11401C14.2763 3.1514 14.3347 3.20706 14.3754 3.27504C14.4161 3.34302 14.4376 3.42077 14.4375 3.49999V23.1875H4.8125V9.33406ZM11.8125 12.25V14C11.8125 14.116 11.7664 14.2273 11.6844 14.3094C11.6023 14.3914 11.491 14.4375 11.375 14.4375C11.259 14.4375 11.1477 14.3914 11.0656 14.3094C10.9836 14.2273 10.9375 14.116 10.9375 14V12.25C10.9375 12.134 10.9836 12.0227 11.0656 11.9406C11.1477 11.8586 11.259 11.8125 11.375 11.8125C11.491 11.8125 11.6023 11.8586 11.6844 11.9406C11.7664 12.0227 11.8125 12.134 11.8125 12.25ZM8.3125 12.25V14C8.3125 14.116 8.26641 14.2273 8.18436 14.3094C8.10231 14.3914 7.99103 14.4375 7.875 14.4375C7.75897 14.4375 7.64769 14.3914 7.56564 14.3094C7.48359 14.2273 7.4375 14.116 7.4375 14V12.25C7.4375 12.134 7.48359 12.0227 7.56564 11.9406C7.64769 11.8586 7.75897 11.8125 7.875 11.8125C7.99103 11.8125 8.10231 11.8586 8.18436 11.9406C8.26641 12.0227 8.3125 12.134 8.3125 12.25ZM8.3125 18.375V20.125C8.3125 20.241 8.26641 20.3523 8.18436 20.4344C8.10231 20.5164 7.99103 20.5625 7.875 20.5625C7.75897 20.5625 7.64769 20.5164 7.56564 20.4344C7.48359 20.3523 7.4375 20.241 7.4375 20.125V18.375C7.4375 18.259 7.48359 18.1477 7.56564 18.0656C7.64769 17.9836 7.75897 17.9375 7.875 17.9375C7.99103 17.9375 8.10231 17.9836 8.18436 18.0656C8.26641 18.1477 8.3125 18.259 8.3125 18.375ZM11.8125 18.375V20.125C11.8125 20.241 11.7664 20.3523 11.6844 20.4344C11.6023 20.5164 11.491 20.5625 11.375 20.5625C11.259 20.5625 11.1477 20.5164 11.0656 20.4344C10.9836 20.3523 10.9375 20.241 10.9375 20.125V18.375C10.9375 18.259 10.9836 18.1477 11.0656 18.0656C11.1477 17.9836 11.259 17.9375 11.375 17.9375C11.491 17.9375 11.6023 17.9836 11.6844 18.0656C11.7664 18.1477 11.8125 18.259 11.8125 18.375Z" />
</svg>