<svg xmlns="http://www.w3.org/2000/svg" width="28" height="28" viewBox="0 0 28 28" fill="none">
    <path
        d="M7.61267 5.24995V22.75C7.61267 22.866 7.56657 22.9773 7.48453 23.0593C7.40248 23.1414 7.2912 23.1875 7.17517 23.1875C7.05913 23.1875 6.94785 23.1414 6.86581 23.0593C6.78376 22.9773 6.73767 22.866 6.73767 22.75V6.02214L3.02548 8.25011C2.97621 8.2797 2.9216 8.29929 2.86476 8.30778C2.80792 8.31626 2.74997 8.31346 2.69421 8.29955C2.5816 8.27145 2.48477 8.19976 2.42501 8.10026C2.36525 8.00077 2.34747 7.88161 2.37557 7.769C2.40367 7.65639 2.47536 7.55955 2.57485 7.4998L6.94985 4.8748C7.01625 4.83491 7.09204 4.81336 7.16949 4.81235C7.24694 4.81135 7.32326 4.83092 7.39067 4.86907C7.45807 4.90723 7.51414 4.96259 7.55315 5.02951C7.59215 5.09643 7.61269 5.1725 7.61267 5.24995Z"
        fill="#E20D0D" />
    <path
        d="M24.8501 5.24995V22.75C24.8501 22.866 24.804 22.9773 24.722 23.0593C24.6399 23.1414 24.5286 23.1875 24.4126 23.1875C24.2966 23.1875 24.1853 23.1414 24.1032 23.0593C24.0212 22.9773 23.9751 22.866 23.9751 22.75V6.02214L20.2629 8.25011C20.2136 8.2797 20.159 8.29929 20.1022 8.30778C20.0454 8.31626 19.9874 8.31346 19.9316 8.29955C19.819 8.27145 19.7222 8.19976 19.6624 8.10026C19.6027 8.00077 19.5849 7.88161 19.613 7.769C19.6411 7.65639 19.7128 7.55955 19.8123 7.4998L24.1873 4.8748C24.2537 4.83491 24.3295 4.81336 24.4069 4.81235C24.4844 4.81135 24.5607 4.83092 24.6281 4.86907C24.6955 4.90723 24.7516 4.96259 24.7906 5.02951C24.8296 5.09643 24.8501 5.1725 24.8501 5.24995Z"
        fill="#E20D0D" />
    <path
        d="M14.6125 11.725C14.8721 11.725 15.1259 11.648 15.3417 11.5038C15.5576 11.3596 15.7258 11.1546 15.8251 10.9147C15.9245 10.6749 15.9505 10.411 15.8998 10.1564C15.8492 9.90182 15.7242 9.66795 15.5406 9.4844C15.3571 9.30084 15.1232 9.17584 14.8686 9.1252C14.614 9.07455 14.3501 9.10054 14.1103 9.19988C13.8704 9.29922 13.6655 9.46745 13.5212 9.68329C13.377 9.89913 13.3 10.1529 13.3 10.4125C13.3 10.7606 13.4383 11.0944 13.6845 11.3406C13.9306 11.5867 14.2645 11.725 14.6125 11.725ZM14.6125 16.1C14.353 16.1 14.0992 16.177 13.8834 16.3212C13.6675 16.4654 13.4993 16.6704 13.4 16.9102C13.3006 17.15 13.2746 17.4139 13.3253 17.6685C13.3759 17.9231 13.5009 18.157 13.6845 18.3406C13.868 18.5241 14.1019 18.6491 14.3565 18.6998C14.6111 18.7504 14.875 18.7244 15.1148 18.6251C15.3546 18.5257 15.5596 18.3575 15.7039 18.1417C15.8481 17.9258 15.925 17.6721 15.925 17.4125C15.925 17.0644 15.7868 16.7305 15.5406 16.4844C15.2945 16.2383 14.9606 16.1 14.6125 16.1Z"
        fill="#E20D0D" />
</svg>