<svg xmlns="http://www.w3.org/2000/svg" width="28" height="28" viewBox="0 0 28 28" fill="#E20D0D">
    <path
        d="M22.75 4.8125H5.25C4.9019 4.8125 4.56806 4.95078 4.32192 5.19692C4.07578 5.44306 3.9375 5.7769 3.9375 6.125V12.25C3.9375 17.8456 6.64234 21.2319 8.91078 23.0891C11.3608 25.0928 13.7834 25.7687 13.8852 25.7972C13.9604 25.8176 14.0396 25.8176 14.1148 25.7972C14.2166 25.7687 16.6392 25.0928 19.0892 23.0891C21.3577 21.2297 24.0625 17.8456 24.0625 12.25V6.125C24.0625 5.7769 23.9242 5.44306 23.6781 5.19692C23.4319 4.95078 23.0981 4.8125 22.75 4.8125ZM23.1875 12.25C23.1875 16.4544 21.6311 19.8658 18.562 22.3902C17.2068 23.5018 15.6611 24.3582 14 24.9178C12.3387 24.3587 10.7929 23.5022 9.43797 22.3902C6.36891 19.8658 4.8125 16.4544 4.8125 12.25V6.125C4.8125 6.00897 4.85859 5.89769 4.94064 5.81564C5.02269 5.73359 5.13397 5.6875 5.25 5.6875H22.75C22.866 5.6875 22.9773 5.73359 23.0594 5.81564C23.1414 5.89769 23.1875 6.00897 23.1875 6.125V12.25ZM18.6845 11.0655C18.7252 11.1061 18.7575 11.1544 18.7795 11.2075C18.8015 11.2606 18.8128 11.3175 18.8128 11.375C18.8128 11.4325 18.8015 11.4894 18.7795 11.5425C18.7575 11.5956 18.7252 11.6439 18.6845 11.6845L12.5595 17.8095C12.5189 17.8502 12.4706 17.8825 12.4175 17.9045C12.3644 17.9265 12.3075 17.9378 12.25 17.9378C12.1925 17.9378 12.1356 17.9265 12.0825 17.9045C12.0294 17.8825 11.9811 17.8502 11.9405 17.8095L9.31547 15.1845C9.23338 15.1024 9.18726 14.9911 9.18726 14.875C9.18726 14.7589 9.23338 14.6476 9.31547 14.5655C9.39756 14.4834 9.5089 14.4373 9.625 14.4373C9.7411 14.4373 9.85244 14.4834 9.93453 14.5655L12.25 16.8809L18.0655 11.0655C18.1061 11.0248 18.1544 10.9925 18.2075 10.9705C18.2606 10.9485 18.3175 10.9372 18.375 10.9372C18.4325 10.9372 18.4894 10.9485 18.5425 10.9705C18.5956 10.9925 18.6439 11.0248 18.6845 11.0655Z" />
</svg>