<svg xmlns="http://www.w3.org/2000/svg" width="28" height="28" viewBox="0 0 28 28" fill="none">
    <path
        d="M24.0625 10.9616V10.5C24.0608 8.99211 23.461 7.54649 22.3948 6.48025C21.3285 5.41401 19.8829 4.81424 18.375 4.8125H17.5C17.1519 4.8125 16.8181 4.95078 16.5719 5.19692C16.3258 5.44306 16.1875 5.7769 16.1875 6.125V19.6875H13.5625V7.875C13.5625 7.75897 13.5164 7.64769 13.4344 7.56564C13.3523 7.48359 13.241 7.4375 13.125 7.4375H1.75C1.4019 7.4375 1.06806 7.57578 0.821922 7.82192C0.575781 8.06806 0.4375 8.4019 0.4375 8.75V20.125C0.437792 20.7945 0.65744 21.4454 1.06283 21.9781C1.46822 22.5109 2.03701 22.8962 2.68216 23.0749C3.3273 23.2537 4.01326 23.2162 4.63504 22.9681C5.25682 22.7199 5.78018 22.2749 6.125 21.7011C6.45052 22.2427 6.93561 22.6704 7.51377 22.9255C8.09192 23.1805 8.73482 23.2505 9.35431 23.1258C9.9738 23.0011 10.5395 22.6878 10.974 22.2289C11.4084 21.77 11.6902 21.1879 11.7808 20.5625H21.4692C21.5803 21.3284 21.9772 22.0238 22.5802 22.5089C23.1832 22.9941 23.9474 23.2329 24.7193 23.1775C25.4912 23.1221 26.2135 22.7765 26.741 22.2102C27.2685 21.6439 27.562 20.8989 27.5625 20.125V14.875C27.5611 13.9068 27.2037 12.973 26.5583 12.2513C25.9129 11.5296 25.0245 11.0706 24.0625 10.9616ZM1.3125 8.75C1.3125 8.63397 1.35859 8.52269 1.44064 8.44064C1.52269 8.35859 1.63397 8.3125 1.75 8.3125H12.6875V19.6875H11.7808C11.6902 19.0621 11.4084 18.4801 10.974 18.0211C10.5395 17.5622 9.9738 17.2489 9.35431 17.1242C8.73482 16.9995 8.09192 17.0695 7.51377 17.3245C6.93561 17.5796 6.45052 18.0073 6.125 18.5489C5.88388 18.148 5.55412 17.8076 5.16102 17.554C4.76791 17.3003 4.32192 17.1401 3.85726 17.0856C3.39261 17.0311 2.92164 17.0838 2.48052 17.2396C2.03939 17.3955 1.63983 17.6503 1.3125 17.9845V8.75ZM3.5 22.3125C3.06735 22.3125 2.64442 22.1842 2.28469 21.9438C1.92496 21.7035 1.64458 21.3618 1.47901 20.9621C1.31345 20.5624 1.27013 20.1226 1.35453 19.6982C1.43894 19.2739 1.64728 18.8841 1.9532 18.5782C2.25913 18.2723 2.64891 18.0639 3.07324 17.9795C3.49757 17.8951 3.93741 17.9384 4.33712 18.104C4.73683 18.2696 5.07847 18.55 5.31884 18.9097C5.55921 19.2694 5.6875 19.6924 5.6875 20.125C5.6875 20.7052 5.45703 21.2616 5.0468 21.6718C4.63656 22.082 4.08016 22.3125 3.5 22.3125ZM8.75 22.3125C8.31735 22.3125 7.89442 22.1842 7.53469 21.9438C7.17496 21.7035 6.89458 21.3618 6.72901 20.9621C6.56345 20.5624 6.52013 20.1226 6.60453 19.6982C6.68894 19.2739 6.89728 18.8841 7.2032 18.5782C7.50913 18.2723 7.89891 18.0639 8.32324 17.9795C8.74757 17.8951 9.18741 17.9384 9.58712 18.104C9.98683 18.2696 10.3285 18.55 10.5688 18.9097C10.8092 19.2694 10.9375 19.6924 10.9375 20.125C10.9375 20.7052 10.707 21.2616 10.2968 21.6718C9.88656 22.082 9.33016 22.3125 8.75 22.3125ZM24.5 22.3125C24.0674 22.3125 23.6444 22.1842 23.2847 21.9438C22.925 21.7035 22.6446 21.3618 22.479 20.9621C22.3134 20.5624 22.2701 20.1226 22.3545 19.6982C22.4389 19.2739 22.6473 18.8841 22.9532 18.5782C23.2591 18.2723 23.6489 18.0639 24.0732 17.9795C24.4976 17.8951 24.9374 17.9384 25.3371 18.104C25.7368 18.2696 26.0785 18.55 26.3188 18.9097C26.5592 19.2694 26.6875 19.6924 26.6875 20.125C26.6875 20.7052 26.457 21.2616 26.0468 21.6718C25.6366 22.082 25.0802 22.3125 24.5 22.3125ZM24.5 17.0625C23.7636 17.0626 23.0519 17.328 22.4953 17.8101C21.9387 18.2922 21.5744 18.9587 21.4692 19.6875H17.0625V6.125C17.0625 6.00897 17.1086 5.89769 17.1906 5.81564C17.2727 5.73359 17.384 5.6875 17.5 5.6875H18.375C19.6509 5.68895 20.8741 6.19644 21.7764 7.09865C22.6786 8.00085 23.1861 9.22409 23.1875 10.5V11.375C23.1875 11.491 23.2336 11.6023 23.3156 11.6844C23.3977 11.7664 23.509 11.8125 23.625 11.8125C24.4372 11.8125 25.2162 12.1352 25.7905 12.7095C26.3648 13.2838 26.6875 14.0628 26.6875 14.875V17.9845C26.403 17.6925 26.0628 17.4604 25.6871 17.3021C25.3114 17.1437 24.9077 17.0623 24.5 17.0625Z"
        fill="#E20D0D" />
</svg>