<svg xmlns="http://www.w3.org/2000/svg" width="22" height="20" viewBox="0 0 22 20" fill="#E20D0D">
    <path
        d="M20.625 4.4375H3.125C2.7769 4.4375 2.44306 4.29922 2.19692 4.05308C1.95078 3.80694 1.8125 3.4731 1.8125 3.125C1.8125 2.7769 1.95078 2.44306 2.19692 2.19692C2.44306 1.95078 2.7769 1.8125 3.125 1.8125H18C18.116 1.8125 18.2273 1.76641 18.3094 1.68436C18.3914 1.60231 18.4375 1.49103 18.4375 1.375C18.4375 1.25897 18.3914 1.14769 18.3094 1.06564C18.2273 0.983594 18.116 0.9375 18 0.9375H3.125C2.54484 0.9375 1.98844 1.16797 1.5782 1.5782C1.16797 1.98844 0.9375 2.54484 0.9375 3.125V17.125C0.9375 17.7052 1.16797 18.2616 1.5782 18.6718C1.98844 19.082 2.54484 19.3125 3.125 19.3125H20.625C20.9731 19.3125 21.3069 19.1742 21.5531 18.9281C21.7992 18.6819 21.9375 18.3481 21.9375 18V5.75C21.9375 5.4019 21.7992 5.06806 21.5531 4.82192C21.3069 4.57578 20.9731 4.4375 20.625 4.4375ZM21.0625 18C21.0625 18.116 21.0164 18.2273 20.9344 18.3094C20.8523 18.3914 20.741 18.4375 20.625 18.4375H3.125C2.7769 18.4375 2.44306 18.2992 2.19692 18.0531C1.95078 17.8069 1.8125 17.4731 1.8125 17.125V4.875C2.19062 5.15998 2.65151 5.31361 3.125 5.3125H20.625C20.741 5.3125 20.8523 5.35859 20.9344 5.44064C21.0164 5.52269 21.0625 5.63397 21.0625 5.75V18ZM17.5625 11.4375C17.5625 11.6106 17.5112 11.7797 17.415 11.9236C17.3189 12.0675 17.1822 12.1797 17.0223 12.2459C16.8625 12.3121 16.6865 12.3294 16.5168 12.2957C16.3471 12.2619 16.1912 12.1786 16.0688 12.0562C15.9464 11.9338 15.8631 11.7779 15.8293 11.6082C15.7956 11.4385 15.8129 11.2625 15.8791 11.1027C15.9453 10.9428 16.0575 10.8061 16.2014 10.71C16.3453 10.6138 16.5144 10.5625 16.6875 10.5625C16.9196 10.5625 17.1421 10.6547 17.3062 10.8188C17.4703 10.9829 17.5625 11.2054 17.5625 11.4375Z" />
</svg>