<svg xmlns="http://www.w3.org/2000/svg" width="32" height="32" viewBox="0 0 32 32" fill="none">
    <path
        d="M16 0C7.16337 0 0 7.16337 0 16C0 24.8366 7.16337 32 16 32C24.8366 32 32 24.8366 32 16C32 7.16337 24.8366 0 16 0Z"
        fill="#40B3E0" />
    <path
        d="M23.7853 9.20384L20.9275 23.6122C20.9275 23.6122 20.5279 24.6115 19.4288 24.1318L12.834 19.0758L10.436 17.9168L6.39929 16.5578C6.39929 16.5578 5.77979 16.3381 5.71979 15.8585C5.65992 15.3788 6.41929 15.1191 6.41929 15.1191L22.4663 8.82409C22.4663 8.82409 23.7853 8.24459 23.7853 9.20384Z"
        fill="white" />
    <path
        d="M12.3273 23.4504C12.3273 23.4504 12.1348 23.4324 11.8949 22.6729C11.6552 21.9136 10.4362 17.9168 10.4362 17.9168L20.1283 11.7618C20.1283 11.7618 20.6879 11.4221 20.6679 11.7618C20.6679 11.7618 20.7678 11.8217 20.468 12.1014C20.1683 12.3813 12.8542 18.9559 12.8542 18.9559"
        fill="#D2E5F1" />
    <path d="M15.3626 21.0144L12.7541 23.3927C12.7541 23.3927 12.5503 23.5474 12.3271 23.4504L12.8266 19.0328"
        fill="#B5CFE4" />
</svg>